STARTFONT 2.1
COMMENT $XConsortium: lubB10.bdf,v 1.10 94/04/02 16:24:08 gildea Exp $
COMMENT  (c) Copyright Bigelow & Holmes 1986, 1985. Lucida is a registered
COMMENT  trademark of Bigelow & Holmes. See LEGAL NOTICE file for terms 
COMMENT  of the license. 
COMMENT  
COMMENT  Translation to ISO8859-2 by Cub Soft;  Petr.Kolar@vslib.cz
COMMENT  
FONT -B&H-LucidaBright-DemiBold-R-Normal--14-100-100-100-P-84-ISO8859-2
SIZE 10 100 100
FONTBOUNDINGBOX 23 16 -8 -3
STARTPROPERTIES 20
COMMENT Begin LogicalFontDescription
FONTNAME_REGISTRY ""
FOUNDRY "B&H"
FAMILY_NAME "LucidaBright"
WEIGHT_NAME "DemiBold"
SLANT "R"
SETWIDTH_NAME "Normal"
ADD_STYLE_NAME ""
PIXEL_SIZE 14
POINT_SIZE 100
RESOLUTION_X 100
RESOLUTION_Y 100
SPACING "P"
AVERAGE_WIDTH 84
CHARSET_REGISTRY "ISO8859"
CHARSET_ENCODING "2"
COMMENT END LogicalFontDescription
FONT_ASCENT 13
FONT_DESCENT 3
DEFAULT_CHAR 0
COPYRIGHT "Copyright Bigelow & Holmes 1986, 1985., Copyright 1996 Cub Soft"
FACE_NAME "Lucida Bright Demibold"
ENDPROPERTIES
CHARS 191
STARTCHAR space
ENCODING 32
SWIDTH 333 0
DWIDTH 5 0
BBX 1 1 0 0
BITMAP
00
ENDCHAR
STARTCHAR exclam
ENCODING 33
SWIDTH 265 0
DWIDTH 4 0
BBX 2 10 1 0
BITMAP
c0
c0
c0
c0
c0
40
40
00
c0
c0
ENDCHAR
STARTCHAR quotedbl
ENCODING 34
SWIDTH 461 0
DWIDTH 6 0
BBX 6 4 0 6
BITMAP
cc
cc
48
48
ENDCHAR
STARTCHAR numbersign
ENCODING 35
SWIDTH 663 0
DWIDTH 9 0
BBX 9 10 0 0
BITMAP
0900
1200
1200
7f80
1200
2400
ff00
2400
2400
4800
ENDCHAR
STARTCHAR dollar
ENCODING 36
SWIDTH 623 0
DWIDTH 9 0
BBX 6 13 1 -2
BITMAP
10
7c
d4
d4
f0
30
18
1c
9c
dc
f8
10
10
ENDCHAR
STARTCHAR percent
ENCODING 37
SWIDTH 759 0
DWIDTH 11 0
BBX 10 10 0 0
BITMAP
70c0
d980
db00
da00
7400
0b80
16c0
36c0
66c0
c380
ENDCHAR
STARTCHAR ampersand
ENCODING 38
SWIDTH 765 0
DWIDTH 11 0
BBX 10 10 0 0
BITMAP
1c00
3600
3600
3c00
39c0
4880
cc80
c700
e700
3dc0
ENDCHAR
STARTCHAR apostrophe
ENCODING 39
SWIDTH 265 0
DWIDTH 4 0
BBX 2 4 1 6
BITMAP
c0
c0
c0
c0
ENDCHAR
STARTCHAR parenleft
ENCODING 40
SWIDTH 327 0
DWIDTH 5 0
BBX 4 13 0 -3
BITMAP
10
20
60
40
c0
c0
c0
c0
c0
40
60
20
10
ENDCHAR
STARTCHAR parenright
ENCODING 41
SWIDTH 327 0
DWIDTH 5 0
BBX 4 13 0 -3
BITMAP
80
40
60
20
30
30
30
30
30
20
60
40
80
ENDCHAR
STARTCHAR asterisk
ENCODING 42
SWIDTH 434 0
DWIDTH 6 0
BBX 5 5 1 5
BITMAP
20
a8
d0
d0
50
ENDCHAR
STARTCHAR plus
ENCODING 43
SWIDTH 623 0
DWIDTH 9 0
BBX 9 8 0 0
BITMAP
0800
0800
0800
0800
ff80
0800
0800
0800
ENDCHAR
STARTCHAR comma
ENCODING 44
SWIDTH 265 0
DWIDTH 4 0
BBX 2 5 1 -3
BITMAP
c0
c0
c0
c0
c0
ENDCHAR
STARTCHAR minus
ENCODING 45
SWIDTH 623 0
DWIDTH 9 0
BBX 8 1 0 3
BITMAP
ff
ENDCHAR
STARTCHAR period
ENCODING 46
SWIDTH 265 0
DWIDTH 4 0
BBX 2 2 1 0
BITMAP
c0
c0
ENDCHAR
STARTCHAR slash
ENCODING 47
SWIDTH 527 0
DWIDTH 7 0
BBX 7 13 0 -3
BITMAP
02
04
04
08
08
10
10
10
20
20
40
40
80
ENDCHAR
STARTCHAR zero
ENCODING 48
SWIDTH 623 0
DWIDTH 9 0
BBX 8 10 0 0
BITMAP
3c
66
c3
c3
c3
c3
c3
c3
66
3c
ENDCHAR
STARTCHAR one
ENCODING 49
SWIDTH 623 0
DWIDTH 9 0
BBX 6 10 1 0
BITMAP
f0
30
30
30
30
30
30
30
30
fc
ENDCHAR
STARTCHAR two
ENCODING 50
SWIDTH 623 0
DWIDTH 9 0
BBX 7 10 1 0
BITMAP
fc
ce
86
06
0c
18
30
40
fe
fe
ENDCHAR
STARTCHAR three
ENCODING 51
SWIDTH 623 0
DWIDTH 9 0
BBX 7 10 1 0
BITMAP
fc
8e
86
04
78
0c
06
86
8e
f8
ENDCHAR
STARTCHAR four
ENCODING 52
SWIDTH 623 0
DWIDTH 9 0
BBX 8 10 0 0
BITMAP
0e
0e
16
26
46
ff
ff
06
06
0f
ENDCHAR
STARTCHAR five
ENCODING 53
SWIDTH 623 0
DWIDTH 9 0
BBX 6 10 2 0
BITMAP
fc
fc
80
80
f8
1c
0c
8c
9c
f0
ENDCHAR
STARTCHAR six
ENCODING 54
SWIDTH 623 0
DWIDTH 9 0
BBX 8 10 0 0
BITMAP
3e
62
42
c0
de
e7
c3
c3
67
3c
ENDCHAR
STARTCHAR seven
ENCODING 55
SWIDTH 623 0
DWIDTH 9 0
BBX 7 10 1 0
BITMAP
fe
fe
04
08
18
30
20
60
c0
c0
ENDCHAR
STARTCHAR eight
ENCODING 56
SWIDTH 623 0
DWIDTH 9 0
BBX 7 10 1 0
BITMAP
7c
c6
c6
e4
38
5c
c6
c6
e6
7c
ENDCHAR
STARTCHAR nine
ENCODING 57
SWIDTH 623 0
DWIDTH 9 0
BBX 8 10 0 0
BITMAP
3c
e6
c3
c3
e7
7b
03
42
46
7c
ENDCHAR
STARTCHAR colon
ENCODING 58
SWIDTH 265 0
DWIDTH 4 0
BBX 2 7 1 0
BITMAP
c0
c0
00
00
00
c0
c0
ENDCHAR
STARTCHAR semicolon
ENCODING 59
SWIDTH 265 0
DWIDTH 4 0
BBX 2 10 1 -3
BITMAP
c0
c0
00
00
00
c0
c0
c0
c0
80
ENDCHAR
STARTCHAR less
ENCODING 60
SWIDTH 623 0
DWIDTH 9 0
BBX 8 8 0 0
BITMAP
01
06
18
e0
60
18
06
01
ENDCHAR
STARTCHAR equal
ENCODING 61
SWIDTH 623 0
DWIDTH 9 0
BBX 8 4 0 2
BITMAP
ff
00
00
ff
ENDCHAR
STARTCHAR greater
ENCODING 62
SWIDTH 623 0
DWIDTH 9 0
BBX 8 8 0 0
BITMAP
80
60
18
06
07
18
60
80
ENDCHAR
STARTCHAR question
ENCODING 63
SWIDTH 505 0
DWIDTH 7 0
BBX 6 10 1 0
BITMAP
f8
9c
8c
08
10
20
60
00
60
60
ENDCHAR
STARTCHAR at
ENCODING 64
SWIDTH 861 0
DWIDTH 12 0
BBX 12 10 0 0
BITMAP
0fc0
1060
6710
4c90
9990
9990
9ba0
9dc0
6100
1e00
ENDCHAR
STARTCHAR A
ENCODING 65
SWIDTH 795 0
DWIDTH 11 0
BBX 11 10 0 0
BITMAP
0400
0e00
0e00
1700
1300
2380
3f80
41c0
40c0
e1e0
ENDCHAR
STARTCHAR B
ENCODING 66
SWIDTH 639 0
DWIDTH 9 0
BBX 8 10 0 0
BITMAP
fe
63
63
67
7c
66
63
63
67
fe
ENDCHAR
STARTCHAR C
ENCODING 67
SWIDTH 711 0
DWIDTH 10 0
BBX 9 10 0 0
BITMAP
1f80
7080
6080
c000
c000
c000
c000
6000
7080
1f00
ENDCHAR
STARTCHAR D
ENCODING 68
SWIDTH 794 0
DWIDTH 11 0
BBX 10 10 0 0
BITMAP
ff00
6180
60c0
60c0
60c0
60c0
60c0
6080
6180
fe00
ENDCHAR
STARTCHAR E
ENCODING 69
SWIDTH 601 0
DWIDTH 8 0
BBX 7 10 1 0
BITMAP
fe
62
60
64
7c
64
60
60
62
fe
ENDCHAR
STARTCHAR F
ENCODING 70
SWIDTH 584 0
DWIDTH 8 0
BBX 7 10 0 0
BITMAP
fe
62
60
64
7c
64
60
60
60
f0
ENDCHAR
STARTCHAR G
ENCODING 71
SWIDTH 753 0
DWIDTH 11 0
BBX 10 10 0 0
BITMAP
1f80
7180
6080
c000
c000
c3c0
c180
6180
7180
1f80
ENDCHAR
STARTCHAR H
ENCODING 72
SWIDTH 798 0
DWIDTH 11 0
BBX 10 10 1 0
BITMAP
f3c0
6180
6180
6180
7f80
6180
6180
6180
6180
f3c0
ENDCHAR
STARTCHAR I
ENCODING 73
SWIDTH 349 0
DWIDTH 5 0
BBX 4 10 0 0
BITMAP
f0
60
60
60
60
60
60
60
60
f0
ENDCHAR
STARTCHAR J
ENCODING 74
SWIDTH 452 0
DWIDTH 6 0
BBX 6 13 0 -3
BITMAP
3c
18
18
18
18
18
18
18
18
18
18
98
f0
ENDCHAR
STARTCHAR K
ENCODING 75
SWIDTH 747 0
DWIDTH 10 0
BBX 10 10 0 0
BITMAP
f380
6100
6600
6c00
7800
7c00
6e00
6700
6380
f7c0
ENDCHAR
STARTCHAR L
ENCODING 76
SWIDTH 584 0
DWIDTH 8 0
BBX 8 10 0 0
BITMAP
f0
60
60
60
60
60
60
61
61
ff
ENDCHAR
STARTCHAR M
ENCODING 77
SWIDTH 904 0
DWIDTH 13 0
BBX 12 10 0 0
BITMAP
f070
70e0
70e0
59e0
5960
4e60
4e60
4460
4460
e0f0
ENDCHAR
STARTCHAR N
ENCODING 78
SWIDTH 788 0
DWIDTH 11 0
BBX 10 10 0 0
BITMAP
e1c0
7080
7080
5880
5c80
4e80
4680
4380
4380
e180
ENDCHAR
STARTCHAR O
ENCODING 79
SWIDTH 810 0
DWIDTH 11 0
BBX 10 10 1 0
BITMAP
1e00
6180
6180
c0c0
c0c0
c0c0
c0c0
6180
6180
1e00
ENDCHAR
STARTCHAR P
ENCODING 80
SWIDTH 614 0
DWIDTH 9 0
BBX 8 10 0 0
BITMAP
fe
63
63
63
62
7c
60
60
60
f0
ENDCHAR
STARTCHAR Q
ENCODING 81
SWIDTH 810 0
DWIDTH 11 0
BBX 12 13 1 -3
BITMAP
1e00
6180
6180
c0c0
c0c0
c0c0
c0c0
61c0
6180
1f00
0180
00f0
0060
ENDCHAR
STARTCHAR R
ENCODING 82
SWIDTH 720 0
DWIDTH 10 0
BBX 10 10 0 0
BITMAP
fe00
6300
6300
6300
6600
7c00
6e00
6700
6380
f1c0
ENDCHAR
STARTCHAR S
ENCODING 83
SWIDTH 556 0
DWIDTH 8 0
BBX 7 10 1 0
BITMAP
7c
c4
c4
e0
78
1c
0e
86
8e
f8
ENDCHAR
STARTCHAR T
ENCODING 84
SWIDTH 714 0
DWIDTH 10 0
BBX 10 10 0 0
BITMAP
ffc0
8c40
0c00
0c00
0c00
0c00
0c00
0c00
0c00
1e00
ENDCHAR
STARTCHAR U
ENCODING 85
SWIDTH 747 0
DWIDTH 10 0
BBX 10 10 0 0
BITMAP
f1c0
6080
6080
6080
6080
6080
6080
6080
7180
3f00
ENDCHAR
STARTCHAR V
ENCODING 86
SWIDTH 753 0
DWIDTH 11 0
BBX 11 10 0 0
BITMAP
f8e0
7040
30c0
3080
1980
1900
0d00
0e00
0600
0400
ENDCHAR
STARTCHAR W
ENCODING 87
SWIDTH 955 0
DWIDTH 13 0
BBX 13 10 0 0
BITMAP
f338
6310
6310
7720
35a0
35a0
39c0
18c0
18c0
10c0
ENDCHAR
STARTCHAR X
ENCODING 88
SWIDTH 702 0
DWIDTH 10 0
BBX 10 10 0 0
BITMAP
f9c0
7080
3900
1a00
1e00
1e00
1600
2300
4380
e3c0
ENDCHAR
STARTCHAR Y
ENCODING 89
SWIDTH 717 0
DWIDTH 10 0
BBX 10 10 0 0
BITMAP
f1c0
7080
3100
1b00
1e00
0c00
0c00
0c00
0c00
1e00
ENDCHAR
STARTCHAR Z
ENCODING 90
SWIDTH 639 0
DWIDTH 9 0
BBX 8 10 0 0
BITMAP
ff
87
0e
0c
1c
38
30
70
e1
ff
ENDCHAR
STARTCHAR bracketleft
ENCODING 91
SWIDTH 327 0
DWIDTH 5 0
BBX 3 13 1 -3
BITMAP
e0
c0
c0
c0
c0
c0
c0
c0
c0
c0
c0
c0
e0
ENDCHAR
STARTCHAR backslash
ENCODING 92
SWIDTH 527 0
DWIDTH 7 0
BBX 7 13 0 -3
BITMAP
80
40
40
20
20
10
10
18
08
08
04
04
02
ENDCHAR
STARTCHAR bracketright
ENCODING 93
SWIDTH 327 0
DWIDTH 5 0
BBX 3 13 1 -3
BITMAP
e0
60
60
60
60
60
60
60
60
60
60
60
e0
ENDCHAR
STARTCHAR asciicircum
ENCODING 94
SWIDTH 623 0
DWIDTH 9 0
BBX 8 8 0 2
BITMAP
08
18
18
24
24
42
42
81
ENDCHAR
STARTCHAR underscore
ENCODING 95
SWIDTH 500 0
DWIDTH 7 0
BBX 6 1 1 -2
BITMAP
fc
ENDCHAR
STARTCHAR grave
ENCODING 96
SWIDTH 617 0
DWIDTH 9 0
BBX 3 2 2 8
BITMAP
c0
20
ENDCHAR
STARTCHAR a
ENCODING 97
SWIDTH 556 0
DWIDTH 8 0
BBX 7 7 0 0
BITMAP
78
4c
0c
7c
cc
cc
76
ENDCHAR
STARTCHAR b
ENCODING 98
SWIDTH 640 0
DWIDTH 9 0
BBX 8 10 0 0
BITMAP
e0
60
60
6e
7f
63
63
63
67
7e
ENDCHAR
STARTCHAR c
ENCODING 99
SWIDTH 541 0
DWIDTH 8 0
BBX 6 7 1 0
BITMAP
3c
44
c4
c0
c0
60
3c
ENDCHAR
STARTCHAR d
ENCODING 100
SWIDTH 652 0
DWIDTH 9 0
BBX 8 10 1 0
BITMAP
0e
06
06
7e
c6
c6
c6
c6
fe
77
ENDCHAR
STARTCHAR e
ENCODING 101
SWIDTH 568 0
DWIDTH 8 0
BBX 7 7 0 0
BITMAP
38
44
c6
fe
c0
60
3e
ENDCHAR
STARTCHAR f
ENCODING 102
SWIDTH 416 0
DWIDTH 6 0
BBX 6 10 0 0
BITMAP
3c
64
60
f8
60
60
60
60
60
f0
ENDCHAR
STARTCHAR g
ENCODING 103
SWIDTH 599 0
DWIDTH 8 0
BBX 8 10 0 -3
BITMAP
3f
66
66
66
3c
7f
7f
43
c3
7c
ENDCHAR
STARTCHAR h
ENCODING 104
SWIDTH 654 0
DWIDTH 9 0
BBX 9 10 0 0
BITMAP
e000
6000
6000
6e00
7f00
6300
6300
6300
6300
f780
ENDCHAR
STARTCHAR i
ENCODING 105
SWIDTH 325 0
DWIDTH 5 0
BBX 4 10 0 0
BITMAP
60
60
00
e0
60
60
60
60
60
f0
ENDCHAR
STARTCHAR j
ENCODING 106
SWIDTH 355 0
DWIDTH 5 0
BBX 5 13 0 -3
BITMAP
18
18
00
38
18
18
18
18
18
18
18
98
f0
ENDCHAR
STARTCHAR k
ENCODING 107
SWIDTH 654 0
DWIDTH 9 0
BBX 9 10 0 0
BITMAP
e000
6000
6000
6700
6600
6c00
7800
6e00
6700
f380
ENDCHAR
STARTCHAR l
ENCODING 108
SWIDTH 325 0
DWIDTH 5 0
BBX 4 10 0 0
BITMAP
e0
60
60
60
60
60
60
60
60
f0
ENDCHAR
STARTCHAR m
ENCODING 109
SWIDTH 967 0
DWIDTH 14 0
BBX 14 7 0 0
BITMAP
ee70
7ff8
6318
6318
6318
6318
f7bc
ENDCHAR
STARTCHAR n
ENCODING 110
SWIDTH 654 0
DWIDTH 9 0
BBX 9 7 0 0
BITMAP
ee00
7f00
6300
6300
6300
6300
f780
ENDCHAR
STARTCHAR o
ENCODING 111
SWIDTH 617 0
DWIDTH 9 0
BBX 8 7 0 0
BITMAP
3c
66
c3
c3
c3
66
3c
ENDCHAR
STARTCHAR p
ENCODING 112
SWIDTH 652 0
DWIDTH 9 0
BBX 8 10 0 -3
BITMAP
ee
7f
63
63
63
67
7e
60
60
f0
ENDCHAR
STARTCHAR q
ENCODING 113
SWIDTH 640 0
DWIDTH 9 0
BBX 8 10 1 -3
BITMAP
7e
e6
c6
c6
c6
fe
76
06
06
0f
ENDCHAR
STARTCHAR r
ENCODING 114
SWIDTH 462 0
DWIDTH 6 0
BBX 6 7 0 0
BITMAP
ec
7c
64
60
60
60
f0
ENDCHAR
STARTCHAR s
ENCODING 115
SWIDTH 525 0
DWIDTH 7 0
BBX 6 7 1 0
BITMAP
78
c8
e8
7c
9c
8c
f8
ENDCHAR
STARTCHAR t
ENCODING 116
SWIDTH 389 0
DWIDTH 5 0
BBX 5 9 0 0
BITMAP
60
60
f8
60
60
60
60
60
78
ENDCHAR
STARTCHAR u
ENCODING 117
SWIDTH 654 0
DWIDTH 9 0
BBX 9 7 0 0
BITMAP
e700
6300
6300
6300
6300
7f00
3b80
ENDCHAR
STARTCHAR v
ENCODING 118
SWIDTH 657 0
DWIDTH 9 0
BBX 9 7 0 0
BITMAP
f380
6100
3200
3200
1c00
1c00
0800
ENDCHAR
STARTCHAR w
ENCODING 119
SWIDTH 880 0
DWIDTH 12 0
BBX 12 7 0 0
BITMAP
f270
6720
6720
3740
39c0
1980
1080
ENDCHAR
STARTCHAR x
ENCODING 120
SWIDTH 608 0
DWIDTH 9 0
BBX 9 7 0 0
BITMAP
fb80
7300
3e00
1c00
3e00
6700
e780
ENDCHAR
STARTCHAR y
ENCODING 121
SWIDTH 654 0
DWIDTH 9 0
BBX 9 10 0 -3
BITMAP
f380
6100
3300
3200
1c00
1c00
1800
0800
1000
7000
ENDCHAR
STARTCHAR z
ENCODING 122
SWIDTH 584 0
DWIDTH 8 0
BBX 7 7 1 0
BITMAP
fe
8c
1c
38
70
e2
fe
ENDCHAR
STARTCHAR braceleft
ENCODING 123
SWIDTH 366 0
DWIDTH 5 0
BBX 4 13 1 -3
BITMAP
30
60
60
60
60
60
c0
60
60
60
60
60
30
ENDCHAR
STARTCHAR bar
ENCODING 124
SWIDTH 259 0
DWIDTH 4 0
BBX 1 13 1 -3
BITMAP
80
80
80
80
80
80
80
80
80
80
80
80
80
ENDCHAR
STARTCHAR braceright
ENCODING 125
SWIDTH 366 0
DWIDTH 5 0
BBX 4 13 1 -3
BITMAP
c0
60
60
60
60
60
30
60
60
60
60
60
c0
ENDCHAR
STARTCHAR asciitilde
ENCODING 126
SWIDTH 623 0
DWIDTH 9 0
BBX 8 3 0 2
BITMAP
61
99
86
ENDCHAR
STARTCHAR nobreakspace
ENCODING 160
SWIDTH 333 0
DWIDTH 5 0
BBX 1 1 0 0
BITMAP
00
ENDCHAR
STARTCHAR Aogonek
ENCODING 161
SWIDTH 795 0
DWIDTH 11 0
BBX 11 12 0 -2
BITMAP
0400
0e00
0e00
1700
1300
2380
3f80
41c0
40c0
e1e0
0600
0600
ENDCHAR
STARTCHAR breve
ENCODING 162
SWIDTH 617 0
DWIDTH 9 0
BBX 5 2 2 8
BITMAP
88
70
ENDCHAR
STARTCHAR Lstroke
ENCODING 163
SWIDTH 584 0
DWIDTH 8 0
BBX 8 10 0 0
BITMAP
f0
60
60
70
60
e0
60
61
61
ff
ENDCHAR
STARTCHAR currency
ENCODING 164
SWIDTH 623 0
DWIDTH 9 0
BBX 8 10 0 0
BITMAP
81
c3
7e
66
42
42
66
7e
c3
81
ENDCHAR
STARTCHAR Lcaron
ENCODING 165
SWIDTH 584 0
DWIDTH 8 0
BBX 8 11 0 0
BITMAP
06
f6
66
66
60
60
60
60
61
61
ff
ENDCHAR
STARTCHAR Sacute
ENCODING 166
SWIDTH 556 0
DWIDTH 8 0
BBX 7 13 1 0
BITMAP
18
20
00
7c
c4
c4
e0
78
1c
0e
86
8e
f8
ENDCHAR
STARTCHAR section
ENCODING 167
SWIDTH 623 0
DWIDTH 9 0
BBX 7 13 1 -3
BITMAP
7e
c2
c2
e0
7c
de
c6
f6
7c
1e
86
86
fc
ENDCHAR
STARTCHAR diaeresis
ENCODING 168
SWIDTH 617 0
DWIDTH 9 0
BBX 4 2 2 8
BITMAP
90
90
ENDCHAR
STARTCHAR Scaron
ENCODING 169
SWIDTH 556 0
DWIDTH 8 0
BBX 7 13 1 0
BITMAP
d8
70
00
7c
c4
c4
e0
78
1c
0e
86
8e
f8
ENDCHAR
STARTCHAR Scedilla
ENCODING 170
SWIDTH 556 0
DWIDTH 8 0
BBX 7 13 1 -3
BITMAP
7c
c4
c4
e0
78
1c
0e
86
8e
f8
08
18
18
ENDCHAR
STARTCHAR Tcaron
ENCODING 171
SWIDTH 714 0
DWIDTH 10 0
BBX 10 13 0 0
BITMAP
3600
1c00
0000
ffc0
8c40
0c00
0c00
0c00
0c00
0c00
0c00
0c00
1e00
ENDCHAR
STARTCHAR Zacute
ENCODING 172
SWIDTH 639 0
DWIDTH 9 0
BBX 8 13 0 0
BITMAP
0c
10
00
ff
87
0e
0c
1c
38
30
70
e1
ff
ENDCHAR
STARTCHAR hyphen
ENCODING 173
SWIDTH 289 0
DWIDTH 4 0
BBX 3 2 1 3
BITMAP
e0
e0
ENDCHAR
STARTCHAR Zcaron
ENCODING 174
SWIDTH 639 0
DWIDTH 9 0
BBX 8 13 0 0
BITMAP
6c
38
00
ff
87
0e
0c
1c
38
30
70
e1
ff
ENDCHAR
STARTCHAR Zabovedot
ENCODING 175
SWIDTH 639 0
DWIDTH 9 0
BBX 8 13 0 0
BITMAP
18
18
00
ff
87
0e
0c
1c
38
30
70
e1
ff
ENDCHAR
STARTCHAR degree
ENCODING 176
SWIDTH 259 0
DWIDTH 4 0
BBX 3 2 2 8
BITMAP
e0
60
ENDCHAR
STARTCHAR aogonek
ENCODING 177
SWIDTH 556 0
DWIDTH 8 0
BBX 7 9 0 -2
BITMAP
78
4c
0c
7c
cc
cc
76
18
18
ENDCHAR
STARTCHAR ogonek
ENCODING 178
SWIDTH 617 0
DWIDTH 9 0
BBX 2 2 3 -3
BITMAP
c0
c0
ENDCHAR
STARTCHAR lstroke
ENCODING 179
SWIDTH 325 0
DWIDTH 5 0
BBX 4 10 0 0
BITMAP
e0
60
60
60
70
e0
60
60
60
f0
ENDCHAR
STARTCHAR acute
ENCODING 180
SWIDTH 617 0
DWIDTH 9 0
BBX 3 2 3 8
BITMAP
60
80
ENDCHAR
STARTCHAR lcaron
ENCODING 181
SWIDTH 504 0
DWIDTH 7 0
BBX 6 11 0 0
BITMAP
0c
ec
6c
6c
60
60
60
60
60
60
f0
ENDCHAR
STARTCHAR sacute
ENCODING 182
SWIDTH 525 0
DWIDTH 7 0
BBX 6 10 1 0
BITMAP
18
20
00
78
c8
e8
7c
9c
8c
f8
ENDCHAR
STARTCHAR caron
ENCODING 183
SWIDTH 617 0
DWIDTH 9 0
BBX 5 2 2 8
BITMAP
d8
70
ENDCHAR
STARTCHAR cedilla
ENCODING 184
SWIDTH 617 0
DWIDTH 9 0
BBX 2 3 3 -3
BITMAP
40
c0
c0
ENDCHAR
STARTCHAR scaron
ENCODING 185
SWIDTH 525 0
DWIDTH 7 0
BBX 6 10 1 0
BITMAP
d8
70
00
78
c8
e8
7c
9c
8c
f8
ENDCHAR
STARTCHAR scedilla
ENCODING 186
SWIDTH 525 0
DWIDTH 7 0
BBX 6 10 1 -3
BITMAP
78
c8
e8
7c
9c
8c
f8
10
30
30
ENDCHAR
STARTCHAR tcaron
ENCODING 187
SWIDTH 432 0
DWIDTH 6 0
BBX 6 12 0 0
BITMAP
0c
0c
0c
6c
60
f8
60
60
60
60
60
78
ENDCHAR
STARTCHAR zacute
ENCODING 188
SWIDTH 584 0
DWIDTH 8 0
BBX 7 10 1 0
BITMAP
0c
10
00
fe
8c
1c
38
70
e2
fe
ENDCHAR
STARTCHAR doubleacute
ENCODING 189
SWIDTH 617 0
DWIDTH 9 0
BBX 5 2 2 8
BITMAP
78
a0
ENDCHAR
STARTCHAR zcaron
ENCODING 190
SWIDTH 584 0
DWIDTH 8 0
BBX 7 10 1 0
BITMAP
6c
38
00
fe
8c
1c
38
70
e2
fe
ENDCHAR
STARTCHAR zabovedot
ENCODING 191
SWIDTH 584 0
DWIDTH 8 0
BBX 7 10 1 0
BITMAP
18
18
00
fe
8c
1c
38
70
e2
fe
ENDCHAR
STARTCHAR Racute
ENCODING 192
SWIDTH 720 0
DWIDTH 10 0
BBX 10 13 0 0
BITMAP
0c00
1000
0000
fe00
6300
6300
6300
6600
7c00
6e00
6700
6380
f1c0
ENDCHAR
STARTCHAR Aacute
ENCODING 193
SWIDTH 795 0
DWIDTH 11 0
BBX 11 13 0 0
BITMAP
0600
0800
0000
0400
0e00
0e00
1700
1300
2380
3f80
41c0
40c0
e1e0
ENDCHAR
STARTCHAR Acircumflex
ENCODING 194
SWIDTH 795 0
DWIDTH 11 0
BBX 11 13 0 0
BITMAP
0e00
1b00
0000
0400
0e00
0e00
1700
1300
2380
3f80
41c0
40c0
e1e0
ENDCHAR
STARTCHAR Abreve
ENCODING 195
SWIDTH 795 0
DWIDTH 11 0
BBX 11 13 0 0
BITMAP
1100
0e00
0000
0400
0e00
0e00
1700
1300
2380
3f80
41c0
40c0
e1e0
ENDCHAR
STARTCHAR Adiaeresis
ENCODING 196
SWIDTH 795 0
DWIDTH 11 0
BBX 11 13 0 0
BITMAP
0900
0900
0000
0400
0e00
0e00
1700
1300
2380
3f80
41c0
40c0
e1e0
ENDCHAR
STARTCHAR Lacute
ENCODING 197
SWIDTH 584 0
DWIDTH 8 0
BBX 8 13 0 0
BITMAP
30
40
00
f0
60
60
60
60
60
60
61
61
ff
ENDCHAR
STARTCHAR Cacute
ENCODING 198
SWIDTH 711 0
DWIDTH 10 0
BBX 9 13 0 0
BITMAP
0600
0800
0000
1f80
7080
6080
c000
c000
c000
c000
6000
7080
1f00
ENDCHAR
STARTCHAR Ccedilla
ENCODING 199
SWIDTH 711 0
DWIDTH 10 0
BBX 9 13 0 -3
BITMAP
1f80
7080
6080
c000
c000
c000
c000
6000
7080
1f00
0400
0c00
0c00
ENDCHAR
STARTCHAR Ccaron
ENCODING 200
SWIDTH 711 0
DWIDTH 10 0
BBX 9 13 0 0
BITMAP
3600
1c00
0000
1f80
7080
6080
c000
c000
c000
c000
6000
7080
1f00
ENDCHAR
STARTCHAR Eacute
ENCODING 201
SWIDTH 601 0
DWIDTH 8 0
BBX 7 13 1 0
BITMAP
18
20
00
fe
62
60
64
7c
64
60
60
62
fe
ENDCHAR
STARTCHAR Eogonek
ENCODING 202
SWIDTH 601 0
DWIDTH 8 0
BBX 7 12 1 -2
BITMAP
fe
62
60
64
7c
64
60
60
62
fe
18
18
ENDCHAR
STARTCHAR Ediaeresis
ENCODING 203
SWIDTH 601 0
DWIDTH 8 0
BBX 7 13 1 0
BITMAP
24
24
00
fe
62
60
64
7c
64
60
60
62
fe
ENDCHAR
STARTCHAR Ecaron
ENCODING 204
SWIDTH 601 0
DWIDTH 8 0
BBX 7 13 1 0
BITMAP
6c
38
00
fe
62
60
64
7c
64
60
60
62
fe
ENDCHAR
STARTCHAR Iacute
ENCODING 205
SWIDTH 349 0
DWIDTH 5 0
BBX 4 13 0 0
BITMAP
30
40
00
f0
60
60
60
60
60
60
60
60
f0
ENDCHAR
STARTCHAR Icircumflex
ENCODING 206
SWIDTH 349 0
DWIDTH 5 0
BBX 5 13 1 0
BITMAP
70
d8
00
78
30
30
30
30
30
30
30
30
78
ENDCHAR
STARTCHAR Dcaron
ENCODING 207
SWIDTH 794 0
DWIDTH 11 0
BBX 10 13 0 0
BITMAP
3600
1c00
0000
ff00
6180
60c0
60c0
60c0
60c0
60c0
6080
6180
fe00
ENDCHAR
STARTCHAR Dstroke
ENCODING 208
SWIDTH 794 0
DWIDTH 11 0
BBX 10 10 0 0
BITMAP
ff00
6180
60c0
60c0
f8c0
60c0
60c0
6080
6180
ff00
ENDCHAR
STARTCHAR Nacute
ENCODING 209
SWIDTH 788 0
DWIDTH 11 0
BBX 10 13 0 0
BITMAP
0600
0800
0000
e1c0
7080
7080
5880
5c80
4e80
4680
4380
4380
e180
ENDCHAR
STARTCHAR Ncaron
ENCODING 210
SWIDTH 788 0
DWIDTH 11 0
BBX 10 13 0 0
BITMAP
3600
1c00
0000
e1c0
7080
7080
5880
5c80
4e80
4680
4380
4380
e180
ENDCHAR
STARTCHAR Oacute
ENCODING 211
SWIDTH 810 0
DWIDTH 11 0
BBX 10 13 1 0
BITMAP
0600
0800
0000
1e00
6180
6180
c0c0
c0c0
c0c0
c0c0
6180
6180
1e00
ENDCHAR
STARTCHAR Ocircumflex
ENCODING 212
SWIDTH 810 0
DWIDTH 11 0
BBX 10 13 1 0
BITMAP
1c00
3600
0000
1e00
6180
6180
c0c0
c0c0
c0c0
c0c0
6180
6180
1e00
ENDCHAR
STARTCHAR Odoubleacute
ENCODING 213
SWIDTH 810 0
DWIDTH 11 0
BBX 10 13 1 0
BITMAP
0f00
1400
0000
1e00
6180
6180
c0c0
c0c0
c0c0
c0c0
6180
6180
1e00
ENDCHAR
STARTCHAR Odiaeresis
ENCODING 214
SWIDTH 810 0
DWIDTH 11 0
BBX 10 13 1 0
BITMAP
1200
1200
0000
1e00
6180
6180
c0c0
c0c0
c0c0
c0c0
6180
6180
1e00
ENDCHAR
STARTCHAR multiply
ENCODING 215
SWIDTH 623 0
DWIDTH 9 0
BBX 8 8 0 0
BITMAP
81
42
24
18
18
24
42
81
ENDCHAR
STARTCHAR Rcaron
ENCODING 216
SWIDTH 720 0
DWIDTH 10 0
BBX 10 13 0 0
BITMAP
6c00
3800
0000
fe00
6300
6300
6300
6600
7c00
6e00
6700
6380
f1c0
ENDCHAR
STARTCHAR Uring
ENCODING 217
SWIDTH 747 0
DWIDTH 10 0
BBX 10 13 0 0
BITMAP
0c00
0c00
0000
f1c0
6080
6080
6080
6080
6080
6080
6080
7180
3f00
ENDCHAR
STARTCHAR Uacute
ENCODING 218
SWIDTH 747 0
DWIDTH 10 0
BBX 10 13 0 0
BITMAP
0600
0800
0000
f1c0
6080
6080
6080
6080
6080
6080
6080
7180
3f00
ENDCHAR
STARTCHAR Udoubleacute
ENCODING 219
SWIDTH 747 0
DWIDTH 10 0
BBX 10 13 0 0
BITMAP
0f00
1400
0000
f1c0
6080
6080
6080
6080
6080
6080
6080
7180
3f00
ENDCHAR
STARTCHAR Udiaeresis
ENCODING 220
SWIDTH 747 0
DWIDTH 10 0
BBX 10 13 0 0
BITMAP
1200
1200
0000
f1c0
6080
6080
6080
6080
6080
6080
6080
7180
3f00
ENDCHAR
STARTCHAR Yacute
ENCODING 221
SWIDTH 717 0
DWIDTH 10 0
BBX 10 13 0 0
BITMAP
0600
0800
0000
f1c0
7080
3100
1b00
1e00
0c00
0c00
0c00
0c00
1e00
ENDCHAR
STARTCHAR Tcedilla
ENCODING 222
SWIDTH 714 0
DWIDTH 10 0
BBX 10 13 0 -3
BITMAP
ffc0
8c40
0c00
0c00
0c00
0c00
0c00
0c00
0c00
1e00
0400
0c00
0c00
ENDCHAR
STARTCHAR ssharp
ENCODING 223
SWIDTH 700 0
DWIDTH 10 0
BBX 8 10 1 0
BITMAP
3c
66
64
64
68
6e
67
63
6b
fe
ENDCHAR
STARTCHAR racute
ENCODING 224
SWIDTH 462 0
DWIDTH 6 0
BBX 6 10 0 0
BITMAP
18
20
00
ec
7c
64
60
60
60
f0
ENDCHAR
STARTCHAR aacute
ENCODING 225
SWIDTH 556 0
DWIDTH 8 0
BBX 7 10 0 0
BITMAP
18
20
00
78
4c
0c
7c
cc
cc
76
ENDCHAR
STARTCHAR acircumflex
ENCODING 226
SWIDTH 556 0
DWIDTH 8 0
BBX 7 10 0 0
BITMAP
38
6c
00
78
4c
0c
7c
cc
cc
76
ENDCHAR
STARTCHAR abreve
ENCODING 227
SWIDTH 556 0
DWIDTH 8 0
BBX 7 10 0 0
BITMAP
44
38
00
78
4c
0c
7c
cc
cc
76
ENDCHAR
STARTCHAR adiaeresis
ENCODING 228
SWIDTH 556 0
DWIDTH 8 0
BBX 7 10 0 0
BITMAP
48
48
00
78
4c
0c
7c
cc
cc
76
ENDCHAR
STARTCHAR lacute
ENCODING 229
SWIDTH 325 0
DWIDTH 5 0
BBX 4 13 0 0
BITMAP
30
40
00
e0
60
60
60
60
60
60
60
60
f0
ENDCHAR
STARTCHAR cacute
ENCODING 230
SWIDTH 541 0
DWIDTH 8 0
BBX 6 10 1 0
BITMAP
0c
10
00
3c
44
c4
c0
c0
60
3c
ENDCHAR
STARTCHAR ccedilla
ENCODING 231
SWIDTH 541 0
DWIDTH 8 0
BBX 6 10 1 -3
BITMAP
3c
44
c4
c0
c0
60
3c
10
30
30
ENDCHAR
STARTCHAR ccaron
ENCODING 232
SWIDTH 541 0
DWIDTH 8 0
BBX 6 10 1 0
BITMAP
6c
38
00
3c
44
c4
c0
c0
60
3c
ENDCHAR
STARTCHAR eacute
ENCODING 233
SWIDTH 568 0
DWIDTH 8 0
BBX 7 10 0 0
BITMAP
0c
10
00
38
44
c6
fe
c0
60
3e
ENDCHAR
STARTCHAR eogonek
ENCODING 234
SWIDTH 568 0
DWIDTH 8 0
BBX 7 9 0 -2
BITMAP
38
44
c6
fe
c0
60
3e
18
18
ENDCHAR
STARTCHAR ediaeresis
ENCODING 235
SWIDTH 568 0
DWIDTH 8 0
BBX 7 10 0 0
BITMAP
24
24
00
38
44
c6
fe
c0
60
3e
ENDCHAR
STARTCHAR ecaron
ENCODING 236
SWIDTH 568 0
DWIDTH 8 0
BBX 7 10 0 0
BITMAP
6c
38
00
38
44
c6
fe
c0
60
3e
ENDCHAR
STARTCHAR iacute
ENCODING 237
SWIDTH 325 0
DWIDTH 5 0
BBX 4 10 0 0
BITMAP
30
40
00
e0
60
60
60
60
60
f0
ENDCHAR
STARTCHAR icircumflex
ENCODING 238
SWIDTH 325 0
DWIDTH 5 0
BBX 5 10 1 0
BITMAP
70
d8
00
70
30
30
30
30
30
78
ENDCHAR
STARTCHAR dcaron
ENCODING 239
SWIDTH 792 0
DWIDTH 11 0
BBX 10 11 1 0
BITMAP
00c0
0ec0
06c0
06c0
7e00
c600
c600
c600
c600
fe00
7700
ENDCHAR
STARTCHAR dstroke
ENCODING 240
SWIDTH 792 0
DWIDTH 11 0
BBX 10 10 1 0
BITMAP
0600
3fc0
0600
7e00
c600
c600
c600
c600
fe00
7700
ENDCHAR
STARTCHAR nacute
ENCODING 241
SWIDTH 654 0
DWIDTH 9 0
BBX 9 10 0 0
BITMAP
0c00
1000
0000
ee00
7f00
6300
6300
6300
6300
f780
ENDCHAR
STARTCHAR ncaron
ENCODING 242
SWIDTH 654 0
DWIDTH 9 0
BBX 9 10 0 0
BITMAP
6c00
3800
0000
ee00
7f00
6300
6300
6300
6300
f780
ENDCHAR
STARTCHAR oacute
ENCODING 243
SWIDTH 617 0
DWIDTH 9 0
BBX 8 10 0 0
BITMAP
0c
10
00
3c
66
c3
c3
c3
66
3c
ENDCHAR
STARTCHAR ocircumflex
ENCODING 244
SWIDTH 617 0
DWIDTH 9 0
BBX 8 10 0 0
BITMAP
1c
36
00
3c
66
c3
c3
c3
66
3c
ENDCHAR
STARTCHAR odoubleacute
ENCODING 245
SWIDTH 617 0
DWIDTH 9 0
BBX 8 10 0 0
BITMAP
1e
28
00
3c
66
c3
c3
c3
66
3c
ENDCHAR
STARTCHAR odiaeresis
ENCODING 246
SWIDTH 617 0
DWIDTH 9 0
BBX 8 10 0 0
BITMAP
24
24
00
3c
66
c3
c3
c3
66
3c
ENDCHAR
STARTCHAR division
ENCODING 247
SWIDTH 623 0
DWIDTH 9 0
BBX 8 7 0 0
BITMAP
18
18
00
ff
00
18
18
ENDCHAR
STARTCHAR rcaron
ENCODING 248
SWIDTH 462 0
DWIDTH 6 0
BBX 6 10 0 0
BITMAP
d8
70
00
ec
7c
64
60
60
60
f0
ENDCHAR
STARTCHAR uring
ENCODING 249
SWIDTH 654 0
DWIDTH 9 0
BBX 9 10 0 0
BITMAP
1800
1800
0000
e700
6300
6300
6300
6300
7f00
3b80
ENDCHAR
STARTCHAR uacute
ENCODING 250
SWIDTH 654 0
DWIDTH 9 0
BBX 9 10 0 0
BITMAP
0600
0800
0000
e700
6300
6300
6300
6300
7f00
3b80
ENDCHAR
STARTCHAR udoubleacute
ENCODING 251
SWIDTH 654 0
DWIDTH 9 0
BBX 9 10 0 0
BITMAP
1e00
2800
0000
e700
6300
6300
6300
6300
7f00
3b80
ENDCHAR
STARTCHAR udiaeresis
ENCODING 252
SWIDTH 654 0
DWIDTH 9 0
BBX 9 10 0 0
BITMAP
1200
1200
0000
e700
6300
6300
6300
6300
7f00
3b80
ENDCHAR
STARTCHAR yacute
ENCODING 253
SWIDTH 654 0
DWIDTH 9 0
BBX 9 13 0 -3
BITMAP
0c00
1000
0000
f380
6100
3300
3200
1c00
1c00
1800
0800
1000
7000
ENDCHAR
STARTCHAR tcedilla
ENCODING 254
SWIDTH 389 0
DWIDTH 5 0
BBX 5 12 0 -3
BITMAP
60
60
f8
60
60
60
60
60
78
10
30
30
ENDCHAR
STARTCHAR abovedot
ENCODING 255
SWIDTH 617 0
DWIDTH 9 0
BBX 2 2 3 8
BITMAP
c0
c0
ENDCHAR
ENDFONT
